<svg width="2500" height="816" viewBox="0 0 2500 816" fill="none" xmlns="http://www.w3.org/2000/svg">
<g clip-path="url(#clip0_103_292)">
<path d="M283.927 407.39L443.688 180.612H326.538L227.742 325.207L129.029 180.612H11.7561L171.39 407.39L0.558594 650.414H117.789L227.739 489.491L456.175 816H568.635L283.927 407.39ZM2499.44 180.612H2389.16L2225.25 479.948L2113.11 180.612H2007.16L2164.65 590.224L2042.81 815.997H2150.7L2499.44 180.612ZM543.933 180.612H495.71L439.85 260.486H543.933V650.412H646.127V260.486H750.381V180.612H646.127V135.137C646.127 100.772 660.478 86.7862 695.163 86.7862C715.094 86.7862 735.75 90.7069 750.381 94.6727V12.4095C729.443 4.89032 700.378 0 668.847 0C590.59 0 543.941 51.2146 543.941 136.629L543.933 180.612ZM1774.03 260.488V523.079C1774.03 608.783 1820.6 659.555 1898.7 659.555C1924.62 659.555 1950.37 656.441 1969.85 650.414L1982.18 568.883C1976.32 570.337 1954.94 575.473 1936.02 575.473C1893.49 575.473 1875.99 558.415 1875.99 516.092V260.488H1993.46L1962.94 180.614H1875.99V10.9551L1774.03 62.8194V180.614H1699.65V260.488H1774.03ZM1248.81 171.233C1200.74 171.233 1154.9 191.407 1131.13 223.018V180.614H1028.94V650.414H1131.13V376.222C1131.13 300.063 1164.04 257.982 1223.95 257.982C1288.99 257.982 1316.76 296.063 1316.76 385.113V650.414H1418.71V381.559C1418.71 243.878 1360.14 171.233 1248.81 171.233ZM919.757 624.023V180.612H817.563V650.414H919.757V624.023ZM1625.84 624.023V180.612H1523.2V650.414H1625.84L1625.84 624.023Z" fill="#8B8B97"/>
</g>
<defs>
<clipPath id="clip0_103_292">
<rect width="2500" height="816" fill="white"/>
</clipPath>
</defs>
</svg>
